# xmcd
#
# Track frame offsets: 
#        150
#        12690
#        23978
#        35023
#        47727
#        61580
#        72055
#        85687
#        96215
#        107481
#        120667
#        132978
#        146767
#        157174
#        169090
#        181226
#        193283
#        202997
#        213324
#        224226
#
# Disc length: 3123 seconds
#
# Revision: 0
# Processed by: cddbd v1.5.2PL0 Copyright (c) Steve Scherf et al.
# Submitted via: ExactAudioCopyFreeDBPlugin 1.0
#
DISCID=2b0c3114
DTITLE=Various Artist - The Super Rare Doo Wop Box [Rock Beat box set
DTITLE=]
DYEAR=2015
DGENRE=Rhythm and Blues
TTITLE0=The Whispers - Are You Sorry
TTITLE1=The Inspirations - Maggie
TTITLE2=Jesse Belvin - Dear Heart
TTITLE3=The Cadillacs - Zoom Boom Zing
TTITLE4=The Chestnuts - Love is True
TTITLE5=The El Capris - (Shimmy Shimmy) Ko Ko Wop
TTITLE6=The Baltineers - Moments Like This
TTITLE7=The Copesetics - Collegian
TTITLE8=The Willows - Little Darlin'
TTITLE9=The De'Bonairs - Mother's Son
TTITLE10=The Jets - Heaven Above Me
TTITLE11=Nolan Strong and The Diablos - You Are
TTITLE12=The King's Men - Don't Say You're Sorry
TTITLE13=The Demens - Take Me as I Am
TTITLE14=The Deltairs - Lullabye of the Bells
TTITLE15=The Playboys - So Good
TTITLE16=The Swans - Believe in Me
TTITLE17=The Velours - Romeo
TTITLE18=The Del Vikings - A Sunday Kind of Love
TTITLE19=The Inspirations - Dry Your Eyes
EXTD=
EXTT0=
EXTT1=
EXTT2=
EXTT3=
EXTT4=
EXTT5=
EXTT6=
EXTT7=
EXTT8=
EXTT9=
EXTT10=
EXTT11=
EXTT12=
EXTT13=
EXTT14=
EXTT15=
EXTT16=
EXTT17=
EXTT18=
EXTT19=
PLAYORDER=
